<svg width="705" height="526" viewBox="0 0 705 526" fill="none" xmlns="http://www.w3.org/2000/svg">
<path d="M113.751 214.826L126.334 195.273L233.688 268.867L221.106 288.42C215.442 296.704 186.817 286.948 157.177 266.632C127.536 246.303 108.101 223.11 113.751 214.826Z" fill="#FF8A00"/>
<path d="M233.697 268.873C239.358 260.583 219.916 237.388 190.272 217.066C160.628 196.743 132.007 186.989 126.346 195.279C120.684 203.569 140.126 226.764 169.77 247.086C199.415 267.409 228.036 277.163 233.697 268.873Z" fill="#FCCF4F"/>
<path d="M165.805 236.907C165.004 236.252 164.229 235.596 163.468 234.94C165.204 236.252 167.008 237.55 168.878 238.835C188.513 252.298 207.467 258.749 211.208 253.262C214.079 249.059 207.227 239.102 195.072 228.623C194.684 228.289 194.297 227.954 193.91 227.633C194.738 228.275 195.539 228.931 196.327 229.573C209.925 240.748 217.846 251.709 214.801 256.166C211.047 261.653 192.093 255.189 172.471 241.739C170.147 240.159 167.929 238.54 165.805 236.907Z" fill="#FFF3C9"/>
<path d="M143.712 207.451L143.726 207.438C143.726 207.425 143.739 207.425 143.739 207.411C147.493 201.924 166.447 208.388 186.069 221.838C188.393 223.431 190.624 225.05 192.734 226.683C193.122 227.004 193.509 227.325 193.897 227.647C194.297 227.981 194.685 228.316 195.059 228.637C193.322 227.325 191.519 226.027 189.649 224.742C170.013 211.279 151.059 204.828 147.319 210.315C144.447 214.518 151.299 224.475 163.455 234.954C164.216 235.61 164.991 236.265 165.792 236.921C150.03 224.796 140.413 212.283 143.712 207.451Z" fill="#FF8A00"/>
<path d="M147.332 210.316C151.086 204.829 170.04 211.293 189.662 224.743C191.532 226.027 193.336 227.326 195.072 228.637C207.227 239.116 214.08 249.073 211.208 253.276C207.454 258.763 188.5 252.299 168.878 238.848C167.008 237.564 165.205 236.266 163.468 234.954C151.313 224.475 144.474 214.518 147.332 210.316Z" fill="#FFC700"/>
<path d="M184.827 242.917C184.827 242.917 186.83 240.468 179.711 232.706C179.537 232.519 179.363 232.345 179.19 232.157L178.776 236.922L173.406 231.046L173.753 227.299C171.696 225.787 169.986 224.89 168.811 224.382L168.383 229.293L163.014 223.418L164.029 212.283L169.345 218.132L169.065 221.33C170.44 222.08 172.083 223.11 173.994 224.569L174.421 219.912L179.737 225.76L179.43 229.213C186.416 235.757 188.246 239.812 188.246 239.812L202.405 244.082L203.834 248.444L184.827 242.917Z" fill="#FF8A00"/>
<path d="M256.984 178.652C290.123 178.652 316.986 151.737 316.986 118.535C316.986 85.3333 290.123 58.418 256.984 58.418C223.846 58.418 196.982 85.3333 196.982 118.535C196.982 151.737 223.846 178.652 256.984 178.652Z" fill="#FFF3C9"/>
<path d="M260.925 184.687C294.063 184.687 320.927 157.772 320.927 124.57C320.927 91.3685 294.063 64.4531 260.925 64.4531C227.787 64.4531 200.923 91.3685 200.923 124.57C200.923 157.772 227.787 184.687 260.925 184.687Z" fill="#FCCF4F"/>
<path d="M225.981 103.92C226.569 103.117 227.184 102.341 227.825 101.592C226.89 103.399 226.062 105.286 225.394 107.266C218.354 128.09 229.481 150.695 250.265 157.747C266.148 163.141 283.072 157.895 293.317 145.823C293.637 145.435 293.958 145.06 294.265 144.659C293.744 145.502 293.197 146.318 292.609 147.121C282.644 160.839 264.598 167.116 247.728 161.388C226.943 154.335 215.803 131.731 222.856 110.906C223.684 108.431 224.739 106.102 225.981 103.92Z" fill="#FFF3C9"/>
<path d="M273.24 85.9739C273.267 85.9873 273.294 85.9873 273.32 86.0006C273.347 86.014 273.387 86.014 273.414 86.0274C294.198 93.0803 305.338 115.684 298.286 136.509C297.458 138.971 296.389 141.3 295.147 143.481C294.853 143.883 294.559 144.271 294.265 144.646C293.958 145.047 293.637 145.422 293.317 145.81C294.252 144.003 295.08 142.116 295.748 140.135C302.787 119.311 291.66 96.7072 270.876 89.6542C254.994 84.2608 238.07 89.507 227.825 101.579C227.184 102.328 226.569 103.104 225.981 103.907C235.211 87.6869 254.914 79.7507 273.24 85.9739Z" fill="#FF8A00"/>
<path d="M270.863 89.668C291.647 96.7209 302.787 119.325 295.734 140.149C295.066 142.13 294.238 144.017 293.303 145.824C283.058 157.895 266.147 163.141 250.252 157.748C229.468 150.695 218.327 128.091 225.38 107.267C226.048 105.286 226.876 103.399 227.811 101.592C238.057 89.5207 254.98 84.2612 270.863 89.668Z" fill="#FFC700"/>
<path d="M266.175 120.81L275.552 122.028L280.855 116.18L268.178 114.52C268.419 112.258 268.085 110.264 267.511 108.591L276.193 109.716L281.496 103.867L251.134 99.8789L245.845 105.781L259.202 107.507C260.044 108.993 260.859 111.107 260.738 113.543L250.506 112.205L245.217 118.107L258.187 119.793C258.027 119.98 257.88 120.181 257.706 120.369C250.774 128.211 240.862 124.919 240.862 124.919L261.339 149.45L269.915 148.54L255.075 130.326C255.075 130.299 262.127 128.773 266.175 120.81Z" fill="#FF8A00"/>
<path d="M555.887 90.9231C527.65 54.695 487.163 38.662 463.253 53.4102L463.226 53.3968C463.226 53.3968 444.926 60.985 435.122 73.4581L445.568 86.7208C444.245 107.692 453.088 133.87 471.241 157.156C489.688 180.818 513.357 195.874 534.235 199.353L541.261 208.28C541.261 208.28 558.305 201.896 568.911 190.882C568.924 190.868 568.938 190.855 568.938 190.842C590.029 171.61 584.526 127.647 555.887 90.9231Z" fill="#FFF3C9"/>
<path d="M548.139 204.12C571.514 185.824 566.552 140.325 537.056 102.496C507.559 64.6671 464.699 48.8323 441.324 67.1282C417.949 85.4241 422.911 130.922 452.408 168.752C481.904 206.581 524.764 222.416 548.139 204.12Z" fill="#FCCF4F"/>
<path d="M515.374 104.212C514.319 103.289 513.25 102.419 512.182 101.562C514.186 103.677 516.136 105.925 517.992 108.308C537.521 133.361 540.807 163.5 525.339 175.611C513.504 184.873 494.136 180.925 476.931 167.367C476.384 166.939 475.849 166.498 475.302 166.056C476.317 167.033 477.345 167.983 478.387 168.893C496.326 184.565 517.405 189.624 529.987 179.787C545.469 167.675 542.183 137.536 522.641 112.483C520.33 109.512 517.899 106.769 515.374 104.212Z" fill="#FFF3C9"/>
<path d="M459.246 89.0629C459.233 89.0763 459.206 89.0896 459.193 89.103C459.166 89.1164 459.14 89.1432 459.126 89.1566C443.645 101.268 446.931 131.407 466.473 156.46C468.784 159.431 471.228 162.188 473.753 164.731C474.274 165.186 474.795 165.628 475.316 166.056C475.85 166.498 476.398 166.939 476.945 167.368C474.942 165.253 472.991 163.005 471.135 160.623C451.606 135.569 448.307 105.43 463.788 93.3187C475.623 84.0576 494.991 88.0056 512.196 101.563C513.264 102.406 514.333 103.289 515.388 104.213C496.567 85.2755 472.898 78.3831 459.246 89.0629Z" fill="#FF8A00"/>
<path d="M463.775 93.3185C448.293 105.43 451.579 135.569 471.121 160.622C472.978 163.005 474.928 165.253 476.932 167.367C494.123 180.925 513.505 184.886 525.339 175.611C540.821 163.5 537.535 133.361 517.993 108.308C516.136 105.925 514.186 103.677 512.182 101.563C494.978 88.0054 475.609 84.0574 463.775 93.3185Z" fill="#FFC700"/>
<path d="M500.307 147.281C500.307 147.281 501.376 139.626 494.416 128.839L499.305 121.599L495.084 111.601L488.459 121.385C486.135 119.136 483.891 117.637 481.86 116.634L486.389 109.915L482.168 99.918L466.299 123.325L470.587 133.362L477.532 123.044C479.443 123.633 482.007 124.811 484.559 127.126L479.216 135.022L483.503 145.059L490.262 135.035C490.409 135.343 490.556 135.664 490.703 135.986C496.433 149.235 489.113 155.083 489.113 155.083L523.122 158.991L525.433 150.533L500.307 147.281Z" fill="#FF8A00"/>
<path d="M337.177 309.641C392.646 309.641 437.613 264.588 437.613 209.013C437.613 153.437 392.646 108.385 337.177 108.385C281.709 108.385 236.742 153.437 236.742 209.013C236.742 264.588 281.709 309.641 337.177 309.641Z" fill="#FF8A00"/>
<path d="M332.435 299.256C387.904 299.256 432.87 254.203 432.87 198.628C432.87 143.053 387.904 98 332.435 98C276.966 98 232 143.053 232 198.628C232 254.203 276.966 299.256 332.435 299.256Z" fill="#F9DB7A"/>
<path d="M398.902 184.709C398.408 183.117 397.847 181.551 397.246 180.012C397.767 183.371 398.061 186.81 398.061 190.317C398.061 227.12 368.287 256.965 331.54 256.965C303.463 256.965 279.446 239.527 269.695 214.875C269.388 214.099 269.094 213.309 268.813 212.519C269.187 214.139 269.615 215.745 270.109 217.311C278.551 244.411 303.783 264.085 333.624 264.085C370.357 264.085 400.145 234.254 400.145 197.437C400.131 193.087 399.704 188.831 398.902 184.709Z" fill="#FFF3C9"/>
<path d="M333.624 130.803C333.584 130.803 333.53 130.803 333.49 130.803C333.437 130.803 333.383 130.803 333.33 130.803C296.597 130.803 266.81 160.634 266.81 197.451C266.81 201.814 267.237 206.07 268.038 210.192C268.279 210.981 268.546 211.757 268.813 212.52C269.094 213.31 269.388 214.099 269.695 214.876C269.174 211.516 268.88 208.077 268.88 204.571C268.88 167.767 298.654 137.923 335.4 137.923C363.478 137.923 387.495 155.361 397.246 180.013C397.86 181.552 398.408 183.117 398.902 184.71C392.971 153.996 366.003 130.803 333.624 130.803Z" fill="#FF8A00"/>
<path d="M335.4 137.922C298.667 137.922 268.88 167.753 268.88 204.57C268.88 208.076 269.174 211.516 269.695 214.875C279.459 239.527 303.463 256.965 331.54 256.965C368.273 256.965 398.06 227.134 398.06 190.317C398.06 186.811 397.767 183.371 397.246 180.012C387.481 155.36 363.478 137.922 335.4 137.922Z" fill="#FCCF4F"/>
<path d="M304.624 167.096L299.415 179.315L349.639 169.197L354.902 157.072L304.624 167.096Z" fill="#FF8A00"/>
<path d="M310.235 186.983L305.025 199.188L355.25 189.084L360.513 176.945L310.235 186.983Z" fill="#FF8A00"/>
<path d="M317.688 172.115C317.688 172.115 332.822 179.864 326.036 196.045C319.251 212.225 301.766 212.332 301.766 212.332L347.395 240.182L360.512 234.12L327.212 213.228C327.212 213.228 340.289 205.399 340.102 186.382C339.941 170.429 326.036 164.701 326.036 164.701L317.688 172.115Z" fill="#FF8A00"/>
<path d="M605.447 263.731L582.352 240.592L456.537 373.741L479.632 396.88C489.877 406.596 526.343 384.661 561.086 347.898C595.829 311.121 615.692 273.447 605.447 263.731Z" fill="#FFF3C9"/>
<path d="M537.999 324.759C572.741 287.991 592.601 250.308 582.358 240.592C572.115 230.877 535.647 252.807 500.906 289.574C466.164 326.342 446.304 364.025 456.547 373.741C466.79 383.456 503.257 361.527 537.999 324.759Z" fill="#F9DB7A"/>
<path d="M540.422 309.595C541.33 308.457 542.199 307.32 543.053 306.195C541.05 308.511 538.953 310.839 536.762 313.155C513.76 337.499 489.61 352.033 482.824 345.595C477.642 340.684 484.107 324.932 497.718 306.918C498.146 306.343 498.586 305.781 499.027 305.205C498.079 306.343 497.17 307.48 496.275 308.604C480.888 328.01 473.247 345.448 478.764 350.681C485.549 357.118 509.7 342.584 532.701 318.24C535.413 315.349 537.991 312.459 540.422 309.595Z" fill="#FFF3C9"/>
<path d="M562.061 262.5C562.048 262.487 562.048 262.487 562.034 262.474C562.021 262.46 562.021 262.447 562.007 262.447C555.222 256.01 531.072 270.544 508.07 294.888C505.345 297.765 502.767 300.656 500.336 303.533C499.895 304.095 499.454 304.657 499.027 305.206C498.586 305.782 498.145 306.357 497.718 306.919C499.721 304.604 501.819 302.275 504.009 299.96C527.011 275.616 551.161 261.082 557.947 267.519C563.13 272.431 556.664 288.183 543.053 306.196C542.198 307.321 541.33 308.458 540.422 309.596C558.521 288.236 568.045 268.175 562.061 262.5Z" fill="#FF8A00"/>
<path d="M557.947 267.519C551.162 261.082 527.011 275.616 504.01 299.96C501.819 302.275 499.722 304.604 497.718 306.919C484.107 324.933 477.642 340.671 482.825 345.596C489.61 352.034 513.761 337.5 536.762 313.156C538.953 310.84 541.05 308.512 543.054 306.196C556.665 288.183 563.13 272.444 557.947 267.519Z" fill="#FCCF4F"/>
<path d="M534.024 281.438L525.422 288.597L541.023 290.712L549.572 283.606L534.024 281.438Z" fill="#FF8A00"/>
<path d="M522.631 295.57L514.042 302.744L529.63 304.845L538.179 297.738L522.631 295.57Z" fill="#FF8A00"/>
<path d="M533.29 287.045C533.29 287.045 531.233 294.821 519.879 304.336C508.512 313.852 505.212 310.867 505.212 310.867L496.223 337.286L502.434 335.573L509.34 315.926C509.34 315.926 516.646 313.035 528.494 300.428C538.432 289.842 539.448 283.619 539.448 283.619L533.29 287.045Z" fill="#FF8A00"/>
<path d="M199.831 453.167C163.673 424.875 147.67 384.311 162.404 360.355L162.39 360.328C162.39 360.328 169.964 341.993 182.413 332.17L195.65 342.636C216.582 341.311 242.709 350.17 265.951 368.358C289.567 386.84 304.594 410.555 308.067 431.473L316.977 438.512C316.977 438.512 310.605 455.589 299.612 466.216C299.599 466.229 299.585 466.242 299.572 466.242C280.364 487.374 236.484 481.86 199.831 453.167Z" fill="#FF8A00"/>
<path d="M312.793 445.426C331.054 422.006 315.25 379.063 277.493 349.51C239.736 319.958 194.325 314.986 176.064 338.405C157.803 361.825 173.608 404.768 211.365 434.321C249.121 463.874 294.533 468.845 312.793 445.426Z" fill="#F9DB7A"/>
<path d="M213.11 412.577C212.188 411.52 211.32 410.449 210.465 409.379C212.575 411.386 214.819 413.34 217.197 415.2C242.202 434.766 272.283 438.059 284.372 422.561C293.615 410.704 289.675 391.298 276.144 374.06C275.716 373.512 275.276 372.976 274.835 372.428C275.81 373.445 276.758 374.475 277.667 375.519C293.308 393.493 298.357 414.611 288.54 427.218C276.451 442.729 246.37 439.437 221.365 419.858C218.399 417.542 215.648 415.107 213.11 412.577Z" fill="#FFF3C9"/>
<path d="M197.975 356.341C197.988 356.327 198.002 356.3 198.015 356.287C198.029 356.26 198.055 356.234 198.069 356.22C210.157 340.709 240.238 344.001 265.244 363.581C268.209 365.896 270.961 368.345 273.499 370.875C273.953 371.397 274.393 371.919 274.821 372.441C275.262 372.976 275.703 373.525 276.13 374.073C274.019 372.066 271.775 370.112 269.398 368.252C244.392 348.685 214.311 345.393 202.223 360.891C192.979 372.748 196.92 392.154 210.451 409.391C211.293 410.462 212.174 411.533 213.096 412.59C194.195 393.733 187.316 370.018 197.975 356.341Z" fill="#FF8A00"/>
<path d="M202.237 360.878C214.325 345.367 244.406 348.66 269.412 368.239C271.789 370.099 274.033 372.053 276.144 374.061C289.675 391.285 293.629 410.704 284.372 422.561C272.283 438.072 242.202 434.78 217.197 415.201C214.819 413.34 212.575 411.386 210.465 409.379C196.934 392.141 192.993 372.736 202.237 360.878Z" fill="#FCCF4F"/>
<path d="M251.391 404.826C251.391 404.826 252.3 397.145 245.127 386.518L249.855 379.171L245.434 369.267L239.009 379.184C236.645 376.976 234.361 375.531 232.317 374.567L236.712 367.755L232.29 357.852L216.902 381.58L221.39 391.524L228.136 381.071C230.06 381.62 232.651 382.744 235.242 385.006L230.059 393.009L234.548 402.953L241.093 392.795C241.24 393.103 241.4 393.411 241.547 393.732C247.544 406.861 240.345 412.856 240.345 412.856L274.433 416.082L276.57 407.583L251.391 404.826Z" fill="#FF8A00"/>
<ellipse opacity="0.2" cx="489.175" cy="465.758" rx="133.071" ry="8.96703" fill="black"/>
<path d="M394.028 429.363C394.028 420.354 390.912 417.231 381.923 417.231C390.912 417.231 394.028 414.109 394.028 405.1C394.028 414.109 397.143 417.231 406.132 417.231C397.143 417.231 394.028 420.354 394.028 429.363Z" fill="white"/>
<ellipse opacity="0.2" cx="260.5" cy="517" rx="133.5" ry="9" fill="black"/>
<path d="M22.0512 205C22.0512 196.089 18.9605 193 10.0439 193C18.9605 193 22.0512 189.911 22.0512 181C22.0512 189.911 25.1419 193 34.0585 193C25.1419 193 22.0512 196.089 22.0512 205Z" fill="white"/>
<path d="M655.051 153.077C655.051 138.197 649.89 133.039 635 133.039C649.89 133.039 655.051 127.881 655.051 113C655.051 127.881 660.212 133.039 675.102 133.039C660.212 133.039 655.051 138.197 655.051 153.077Z" fill="white"/>
</svg>
