<svg width="509" height="496" viewBox="0 0 509 496" fill="none" xmlns="http://www.w3.org/2000/svg">
<g clip-path="url(#clip0_1372_2032)">
<path d="M363.103 491.237L177.97 416.722C171.666 414.185 168.614 407.021 171.151 400.718L295.26 92.3702C297.797 86.0669 304.96 83.0149 311.264 85.5519L496.397 160.067C502.7 162.604 505.752 169.768 503.215 176.071L379.102 484.432C376.557 490.716 369.393 493.768 363.103 491.237Z" fill="url(#paint0_linear_1372_2032)"/>
<path d="M361.568 105.689L320.216 89.0449L186.922 420.215L228.274 436.859L361.568 105.689Z" fill="#221F20"/>
<path d="M343.484 267.725L312.267 255.16L241.262 431.572L272.48 444.137L343.484 267.725Z" fill="white"/>
<path d="M371.852 278.746C372.015 278.969 372.27 279.198 372.596 279.329C373.085 279.526 373.474 279.383 373.622 279.016C373.759 278.676 373.65 278.396 373.224 278.004C372.714 277.546 372.459 277.08 372.667 276.564C372.897 275.993 373.547 275.75 374.267 276.04C374.634 276.187 374.881 276.397 375.011 276.544L374.717 276.884C374.641 276.758 374.435 276.565 374.095 276.428C373.592 276.226 373.282 276.448 373.178 276.706C373.041 277.046 373.207 277.302 373.627 277.708C374.154 278.204 374.346 278.629 374.127 279.172C373.898 279.743 373.274 280.076 372.405 279.726C372.052 279.584 371.701 279.316 371.566 279.104L371.852 278.746Z" fill="white"/>
<path d="M376.977 279.472L375.55 278.898L375.015 280.229L376.618 280.874L376.459 281.268L374.381 280.431L375.862 276.75L377.846 277.548L377.682 277.956L376.174 277.349L375.709 278.504L377.135 279.078L376.977 279.472Z" fill="white"/>
<path d="M379.681 282.433C379.466 282.457 379.08 282.397 378.632 282.216C377.586 281.795 377.074 280.831 377.561 279.622C378.031 278.454 379.131 277.997 380.272 278.456C380.72 278.637 380.981 278.852 381.076 278.969L380.795 279.314C380.656 279.148 380.42 278.989 380.121 278.869C379.266 278.525 378.463 278.833 378.069 279.811C377.703 280.721 377.989 281.5 378.886 281.86C379.185 281.981 379.505 282.047 379.739 282.015L379.681 282.433Z" fill="white"/>
<path d="M382.206 279.303L381.326 281.49C380.998 282.305 381.222 282.806 381.711 283.003C382.255 283.221 382.755 282.997 383.078 282.195L383.958 280.008L384.447 280.205L383.578 282.365C383.124 283.492 382.341 283.714 381.539 283.391C380.792 283.09 380.391 282.44 380.856 281.285L381.73 279.111L382.206 279.303Z" fill="white"/>
<path d="M385.24 280.585C385.501 280.642 385.857 280.738 386.183 280.869C386.686 281.072 386.987 281.304 387.123 281.595C387.234 281.829 387.239 282.131 387.124 282.416C386.927 282.905 386.489 283.092 386.054 283.075L386.048 283.088C386.276 283.306 386.349 283.635 386.277 284.049C386.192 284.614 386.131 285 386.158 285.169L385.669 284.972C385.658 284.841 385.703 284.496 385.78 283.99C385.873 283.444 385.746 283.172 385.322 282.97L384.874 282.789L384.234 284.379L383.759 284.187L385.213 280.574M385.043 282.447L385.532 282.644C386.035 282.846 386.47 282.706 386.64 282.284C386.831 281.809 386.579 281.455 386.063 281.247C385.832 281.154 385.658 281.116 385.585 281.102L385.043 282.447Z" fill="white"/>
<path d="M388.684 281.912L388.195 281.715L386.714 285.396L387.203 285.593L388.684 281.912Z" fill="white"/>
<path d="M390.042 282.93L388.928 282.482L389.092 282.074L391.822 283.173L391.658 283.581L390.517 283.121L389.199 286.395L388.724 286.204L390.042 282.93Z" fill="white"/>
<path d="M391.563 287.347L392.191 285.785L391.876 283.195L392.419 283.414L392.526 284.641C392.547 284.981 392.568 285.242 392.586 285.549L392.6 285.555C392.793 285.348 393.022 285.172 393.273 284.941L394.213 284.136L394.756 284.354L392.667 285.976L392.038 287.538L391.563 287.347Z" fill="white"/>
<path d="M372.102 285.73C371.906 285.746 371.515 285.699 371.067 285.519C370.021 285.098 369.509 284.134 370.001 282.911C370.466 281.757 371.565 281.3 372.693 281.753C373.155 281.939 373.402 282.149 373.497 282.266L373.216 282.611C373.072 282.459 372.847 282.273 372.548 282.153C371.678 281.803 370.884 282.13 370.495 283.095C370.129 284.005 370.416 284.783 371.312 285.144C371.611 285.264 371.924 285.311 372.16 285.312L372.102 285.73Z" fill="white"/>
<path d="M377.874 283.978C378.195 284.044 378.546 284.153 378.926 284.307C379.605 284.58 380.029 284.94 380.234 285.37C380.454 285.805 380.475 286.303 380.234 286.901C379.993 287.499 379.606 287.911 379.125 288.128C378.635 288.325 377.988 288.286 377.281 288.001C376.941 287.865 376.662 287.736 376.428 287.611L377.888 283.983M377.038 287.43C377.154 287.493 377.326 287.577 377.502 287.648C378.521 288.058 379.308 287.712 379.707 286.72C380.057 285.851 379.786 285.111 378.781 284.706C378.537 284.608 378.341 284.545 378.202 284.536L377.038 287.43Z" fill="white"/>
<path d="M382.652 288.114L381.225 287.54L380.689 288.871L382.292 289.517L382.134 289.911L380.055 289.074L381.537 285.393L383.534 286.196L383.376 286.59L381.854 285.978L381.384 287.146L382.81 287.72L382.652 288.114Z" fill="white"/>
<path d="M379.886 264.315L378.46 263.741L377.924 265.072L379.513 265.712L379.349 266.12L377.271 265.283L378.758 261.588L380.755 262.392L380.591 262.799L379.083 262.192L378.618 263.347L380.044 263.921L379.886 264.315Z" fill="white"/>
<path d="M381.985 267.184L381.838 266.177C381.773 265.788 381.733 265.535 381.712 265.274L381.698 265.269C381.502 265.442 381.317 265.589 381.009 265.844L380.233 266.478L379.689 266.26L381.566 264.852L381.212 262.595L381.769 262.819L381.913 263.871C381.951 264.171 381.983 264.405 382.001 264.633L382.015 264.638C382.211 264.465 382.377 264.327 382.606 264.15L383.44 263.491L383.997 263.715L382.147 265.055L382.542 267.408L381.985 267.184Z" fill="white"/>
<path d="M384.57 263.974C384.818 264.026 385.127 264.119 385.508 264.273C385.983 264.464 386.279 264.709 386.415 265.001C386.534 265.254 386.566 265.567 386.429 265.906C386.298 266.232 386.08 266.46 385.826 266.579C385.459 266.747 385.002 266.705 384.54 266.519L384.171 266.339L383.575 267.82L383.099 267.628L384.57 263.974ZM384.329 265.945L384.707 266.144C385.278 266.374 385.746 266.231 385.942 265.742C386.139 265.253 385.885 264.866 385.368 264.658C385.151 264.571 384.996 264.524 384.904 264.519L384.329 265.945Z" fill="white"/>
<path d="M376.545 267.123C376.852 267.183 377.217 267.298 377.583 267.446C378.263 267.719 378.686 268.079 378.897 268.495C379.117 268.931 379.132 269.442 378.897 270.026C378.656 270.624 378.264 271.05 377.787 271.253C377.297 271.451 376.65 271.411 375.944 271.127C375.604 270.99 375.324 270.862 375.091 270.736L376.545 267.123ZM375.714 270.561C375.831 270.623 376.007 270.695 376.198 270.771C377.216 271.181 377.989 270.829 378.389 269.838C378.752 268.974 378.468 268.228 377.463 267.823C377.218 267.725 377.017 267.676 376.884 267.654L375.714 270.561Z" fill="white"/>
<path d="M379.774 271.297L378.929 272.298L378.44 272.101L381.185 268.928L381.756 269.158L381.524 273.343L381.008 273.135L381.078 271.822L379.774 271.297ZM381.15 271.408L381.21 270.201C381.227 269.924 381.26 269.685 381.293 269.445L381.279 269.44C381.138 269.635 380.99 269.844 380.821 270.029L380.028 270.941L381.155 271.395L381.15 271.408Z" fill="white"/>
<path d="M384.091 270.57L382.964 270.117L383.128 269.709L385.858 270.808L385.694 271.216L384.567 270.762L383.249 274.036L382.774 273.844L384.091 270.57Z" fill="white"/>
<path d="M387.382 273.696L385.956 273.122L385.425 274.44L387.028 275.085L386.864 275.493L384.786 274.656L386.268 270.975L388.251 271.773L388.092 272.167L386.584 271.56L386.114 272.728L387.541 273.302L387.382 273.696Z" fill="white"/>
<path d="M402.911 201.616L402.394 201.409L409.623 183.45L409.865 183.515L474.106 202.395L480.853 185.631L481.369 185.839L474.436 203.064L474.194 202.999L409.953 184.119L402.911 201.616Z" fill="white"/>
<path d="M382.275 252.886L381.759 252.678L388.987 234.719L389.229 234.785L453.47 253.664L460.217 236.901L460.734 237.109L453.8 254.334L453.559 254.268L389.317 235.389L382.275 252.886Z" fill="white"/>
<path d="M392.593 227.251L392.077 227.043L399.305 209.084L399.547 209.15L463.788 228.03L470.536 211.266L471.052 211.474L464.119 228.699L463.877 228.633L399.636 209.754L392.593 227.251Z" fill="white"/>
<path d="M376.559 285.486C376.051 286.75 375.008 287.104 374.071 286.727C373.093 286.333 372.72 285.299 373.168 284.185C373.639 283.017 374.67 282.532 375.662 282.931C376.662 283.349 377.002 284.386 376.559 285.486ZM373.676 284.374C373.359 285.161 373.491 286.051 374.251 286.357C374.999 286.658 375.712 286.14 376.051 285.298C376.346 284.564 376.278 283.637 375.476 283.314C374.683 283.011 373.999 283.572 373.676 284.374Z" fill="white"/>
<path d="M385.579 268.64C385.656 268.45 385.852 268.355 386.042 268.432C386.232 268.509 386.313 268.699 386.231 268.903C386.155 269.093 385.959 269.188 385.755 269.106C385.573 269.048 385.497 268.844 385.579 268.64Z" fill="white"/>
<path d="M420.272 193.86C421.725 194.446 422.293 194.8 422.672 195.584C423.151 196.551 423.186 198.112 421.551 202.173C419.916 206.235 418.815 207.323 417.8 207.688C416.983 207.991 416.328 207.854 414.875 207.269L412.321 206.241C410.867 205.656 410.3 205.301 409.921 204.517C409.442 203.551 409.401 202.003 411.036 197.941C412.671 193.88 413.772 192.791 414.793 192.413C415.609 192.11 416.264 192.247 417.718 192.833L420.272 193.86ZM417.034 194.688C416.287 194.388 416.045 194.401 415.77 194.495C415.432 194.628 414.811 195.151 413.324 198.846C411.837 202.541 411.908 203.344 412.074 203.679C412.193 203.932 412.372 204.114 413.119 204.415L415.591 205.41C416.338 205.711 416.594 205.703 416.855 205.603C417.193 205.471 417.814 204.947 419.301 201.252C420.788 197.557 420.703 196.749 420.552 196.42C420.427 196.18 420.253 195.984 419.506 195.683L417.034 194.688Z" fill="white"/>
<path d="M433.489 199.181C434.943 199.766 435.511 200.121 435.89 200.905C436.369 201.871 436.417 203.438 434.782 207.5C433.147 211.561 432.046 212.65 431.018 213.009C430.201 213.312 429.546 213.174 428.093 212.589L425.552 211.567C424.099 210.982 423.531 210.627 423.152 209.843C422.673 208.877 422.633 207.329 424.268 203.268C425.903 199.206 427.003 198.118 428.024 197.739C428.84 197.436 429.496 197.574 430.949 198.159L433.489 199.181ZM430.238 200.004C429.491 199.703 429.235 199.71 428.974 199.811C428.637 199.943 428.015 200.467 426.528 204.162C425.041 207.857 425.113 208.659 425.278 208.994C425.397 209.247 425.576 209.43 426.323 209.73L428.796 210.725C429.543 211.026 429.798 211.019 430.06 210.918C430.411 210.791 431.018 210.262 432.505 206.567C433.993 202.872 433.921 202.07 433.756 201.735C433.631 201.496 433.471 201.305 432.711 200.999L430.238 200.004Z" fill="white"/>
<path d="M446.721 204.505C448.174 205.09 448.742 205.445 449.121 206.229C449.6 207.196 449.635 208.757 448 212.818C446.365 216.88 445.251 217.963 444.249 218.333C443.433 218.636 442.778 218.499 441.324 217.914L438.784 216.891C437.33 216.306 436.763 215.951 436.384 215.167C435.904 214.201 435.864 212.654 437.499 208.592C439.134 204.53 440.235 203.442 441.255 203.063C442.072 202.76 442.727 202.898 444.181 203.483L446.721 204.505ZM443.483 205.333C442.736 205.033 442.494 205.046 442.219 205.14C441.882 205.273 441.26 205.796 439.773 209.491C438.286 213.186 438.371 213.994 438.523 214.324C438.642 214.577 438.821 214.759 439.568 215.06L442.041 216.055C442.788 216.356 443.03 216.343 443.305 216.248C443.642 216.116 444.263 215.592 445.751 211.897C447.238 208.202 447.152 207.394 447.001 207.065C446.876 206.825 446.703 206.629 445.956 206.328L443.483 205.333Z" fill="white"/>
<path d="M459.94 209.826C461.393 210.411 461.961 210.766 462.34 211.549C462.819 212.516 462.854 214.077 461.219 218.139C459.584 222.201 458.47 223.283 457.468 223.654C456.652 223.956 455.997 223.819 454.543 223.234L452.003 222.211C450.549 221.626 449.981 221.272 449.602 220.488C449.123 219.521 449.083 217.974 450.718 213.912C452.353 209.85 453.454 208.762 454.474 208.384C455.291 208.081 455.946 208.218 457.399 208.803L459.94 209.826ZM456.702 210.654C455.955 210.353 455.713 210.366 455.438 210.461C455.1 210.593 454.479 211.117 452.992 214.812C451.505 218.507 451.59 219.314 451.742 219.644C451.861 219.897 452.04 220.08 452.787 220.38L455.259 221.375C456.007 221.676 456.249 221.663 456.523 221.568C456.861 221.436 457.482 220.912 458.969 217.217C460.457 213.522 460.371 212.715 460.22 212.385C460.095 212.146 459.921 211.949 459.174 211.649L456.702 210.654Z" fill="white"/>
<path d="M431.569 165.792C433.023 166.377 433.591 166.732 433.97 167.516C434.449 168.482 434.484 170.043 432.849 174.105C431.214 178.167 430.113 179.255 429.098 179.62C428.281 179.923 427.626 179.785 426.173 179.2L423.619 178.172C422.165 177.587 421.598 177.233 421.219 176.449C420.739 175.482 420.699 173.935 422.334 169.873C423.969 165.811 425.07 164.723 426.09 164.345C426.907 164.042 427.562 164.179 429.015 164.764L431.569 165.792ZM428.332 166.62C427.585 166.319 427.342 166.332 427.068 166.427C426.73 166.559 426.109 167.083 424.622 170.778C423.135 174.473 423.206 175.275 423.371 175.61C423.49 175.863 423.67 176.046 424.417 176.347L426.889 177.342C427.636 177.643 427.892 177.635 428.153 177.535C428.491 177.402 429.112 176.879 430.599 173.184C432.086 169.489 432.001 168.681 431.849 168.352C431.725 168.112 431.551 167.916 430.804 167.615L428.332 166.62Z" fill="white"/>
<path d="M444.787 171.113C446.241 171.698 446.808 172.053 447.187 172.837C447.667 173.803 447.715 175.369 446.08 179.431C444.445 183.493 443.344 184.581 442.316 184.941C441.499 185.243 440.844 185.106 439.391 184.521L436.85 183.499C435.397 182.913 434.829 182.559 434.45 181.775C433.971 180.808 433.931 179.261 435.566 175.199C437.2 171.137 438.301 170.049 439.322 169.671C440.138 169.368 440.793 169.505 442.247 170.09L444.787 171.113ZM441.536 171.935C440.789 171.635 440.533 171.642 440.272 171.742C439.934 171.875 439.313 172.398 437.826 176.093C436.339 179.788 436.411 180.591 436.576 180.925C436.695 181.179 436.874 181.361 437.621 181.662L440.093 182.657C440.841 182.958 441.096 182.95 441.358 182.85C441.709 182.723 442.316 182.194 443.803 178.499C445.291 174.804 445.219 174.002 445.054 173.667C444.929 173.427 444.769 173.237 444.008 172.93L441.536 171.935Z" fill="white"/>
<path d="M458.019 176.437C459.472 177.022 460.04 177.377 460.419 178.161C460.898 179.127 460.933 180.688 459.298 184.75C457.663 188.812 456.549 189.894 455.547 190.265C454.731 190.568 454.076 190.43 452.622 189.845L450.082 188.823C448.628 188.238 448.061 187.883 447.682 187.099C447.202 186.133 447.162 184.585 448.797 180.523C450.432 176.462 451.533 175.373 452.553 174.995C453.37 174.692 454.025 174.83 455.478 175.415L458.019 176.437ZM454.781 177.265C454.034 176.964 453.792 176.977 453.517 177.072C453.179 177.204 452.558 177.728 451.071 181.423C449.584 185.118 449.669 185.926 449.821 186.255C449.94 186.508 450.119 186.691 450.866 186.992L453.338 187.987C454.086 188.287 454.328 188.274 454.603 188.18C454.94 188.047 455.561 187.524 457.048 183.829C458.536 180.134 458.45 179.326 458.299 178.997C458.174 178.757 458.001 178.561 457.253 178.26L454.781 177.265Z" fill="white"/>
<path d="M471.238 181.757C472.691 182.342 473.259 182.697 473.638 183.481C474.117 184.448 474.152 186.008 472.517 190.07C470.882 194.132 469.767 195.215 468.766 195.585C467.949 195.888 467.294 195.751 465.841 195.166L463.3 194.143C461.847 193.558 461.279 193.203 460.9 192.419C460.421 191.453 460.381 189.906 462.016 185.844C463.651 181.782 464.752 180.694 465.772 180.315C466.589 180.012 467.244 180.15 468.697 180.735L471.238 181.757ZM468 182.585C467.253 182.285 467.011 182.298 466.736 182.392C466.398 182.525 465.777 183.048 464.29 186.743C462.803 190.438 462.888 191.246 463.039 191.575C463.159 191.829 463.338 192.011 464.085 192.312L466.557 193.307C467.304 193.608 467.546 193.595 467.821 193.5C468.159 193.368 468.78 192.844 470.267 189.149C471.754 185.454 471.669 184.646 471.518 184.317C471.393 184.077 471.219 183.881 470.472 183.58L468 182.585Z" fill="white"/>
<path d="M410.43 218.314C411.883 218.899 412.451 219.253 412.83 220.037C413.309 221.004 413.344 222.565 411.709 226.627C410.074 230.688 408.973 231.776 407.958 232.141C407.142 232.444 406.487 232.307 405.033 231.722L402.479 230.694C401.026 230.109 400.458 229.754 400.079 228.97C399.6 228.004 399.56 226.456 401.194 222.394C402.829 218.333 403.93 217.245 404.951 216.866C405.767 216.563 406.422 216.701 407.876 217.286L410.43 218.314ZM407.192 219.141C406.445 218.841 406.203 218.854 405.928 218.948C405.59 219.081 404.969 219.604 403.482 223.299C401.995 226.995 402.067 227.797 402.232 228.132C402.351 228.385 402.53 228.567 403.277 228.868L405.75 229.863C406.497 230.164 406.752 230.156 407.014 230.056C407.351 229.924 407.972 229.4 409.459 225.705C410.947 222.01 410.861 221.202 410.71 220.873C410.585 220.634 410.412 220.437 409.664 220.137L407.192 219.141Z" fill="white"/>
<path d="M423.648 223.634C425.101 224.219 425.669 224.574 426.048 225.358C426.527 226.324 426.575 227.891 424.941 231.953C423.306 236.015 422.205 237.103 421.176 237.462C420.36 237.765 419.705 237.628 418.251 237.042L415.711 236.02C414.257 235.435 413.689 235.08 413.31 234.296C412.831 233.33 412.791 231.782 414.426 227.721C416.061 223.659 417.162 222.571 418.182 222.192C418.999 221.889 419.654 222.027 421.107 222.612L423.648 223.634ZM420.396 224.457C419.649 224.156 419.394 224.164 419.132 224.264C418.795 224.396 418.174 224.92 416.686 228.615C415.199 232.31 415.271 233.112 415.436 233.447C415.555 233.7 415.734 233.883 416.481 234.183L418.954 235.179C419.701 235.479 419.957 235.472 420.218 235.372C420.569 235.245 421.176 234.716 422.664 231.021C424.151 227.325 424.079 226.523 423.914 226.188C423.79 225.949 423.63 225.758 422.869 225.452L420.396 224.457Z" fill="white"/>
<path d="M436.879 228.959C438.333 229.544 438.9 229.898 439.279 230.682C439.759 231.649 439.793 233.21 438.158 237.271C436.523 241.333 435.409 242.416 434.407 242.786C433.591 243.089 432.936 242.952 431.482 242.367L428.942 241.344C427.488 240.759 426.921 240.404 426.542 239.62C426.063 238.654 426.022 237.107 427.657 233.045C429.292 228.983 430.393 227.895 431.414 227.516C432.23 227.214 432.885 227.351 434.339 227.936L436.879 228.959ZM433.641 229.786C432.894 229.486 432.652 229.499 432.377 229.593C432.04 229.726 431.419 230.249 429.931 233.944C428.444 237.639 428.529 238.447 428.681 238.777C428.8 239.03 428.979 239.212 429.726 239.513L432.199 240.508C432.946 240.809 433.188 240.796 433.463 240.701C433.8 240.569 434.422 240.045 435.909 236.35C437.396 232.655 437.311 231.847 437.159 231.518C437.035 231.278 436.861 231.082 436.114 230.782L433.641 229.786Z" fill="white"/>
<path d="M450.098 234.279C451.551 234.864 452.119 235.219 452.498 236.003C452.977 236.969 453.012 238.53 451.377 242.592C449.742 246.654 448.628 247.736 447.626 248.107C446.81 248.409 446.155 248.272 444.701 247.687L442.161 246.665C440.707 246.079 440.14 245.725 439.761 244.941C439.281 243.974 439.241 242.427 440.876 238.365C442.511 234.303 443.612 233.215 444.632 232.837C445.449 232.534 446.104 232.671 447.558 233.256L450.098 234.279ZM446.86 235.107C446.113 234.806 445.871 234.819 445.596 234.914C445.259 235.046 444.637 235.57 443.15 239.265C441.663 242.96 441.748 243.768 441.9 244.097C442.019 244.35 442.198 244.533 442.945 244.833L445.418 245.829C446.165 246.129 446.407 246.116 446.682 246.022C447.019 245.889 447.64 245.366 449.127 241.671C450.615 237.975 450.529 237.168 450.378 236.838C450.253 236.599 450.08 236.403 449.333 236.102L446.86 235.107Z" fill="white"/>
<path d="M400.588 242.767C402.042 243.352 402.609 243.707 402.988 244.49C403.467 245.457 403.502 247.018 401.867 251.08C400.232 255.142 399.131 256.23 398.116 256.595C397.3 256.897 396.645 256.76 395.191 256.175L392.637 255.147C391.184 254.562 390.616 254.207 390.237 253.423C389.758 252.457 389.718 250.909 391.353 246.848C392.987 242.786 394.088 241.698 395.109 241.319C395.925 241.016 396.58 241.154 398.034 241.739L400.588 242.767ZM397.35 243.595C396.603 243.294 396.361 243.307 396.086 243.402C395.749 243.534 395.128 244.058 393.64 247.753C392.153 251.448 392.225 252.25 392.39 252.585C392.509 252.838 392.688 253.021 393.435 253.321L395.908 254.316C396.655 254.617 396.911 254.61 397.172 254.51C397.509 254.377 398.13 253.854 399.618 250.158C401.105 246.463 401.02 245.656 400.868 245.326C400.743 245.087 400.57 244.89 399.823 244.59L397.35 243.595Z" fill="white"/>
<path d="M413.806 248.087C415.259 248.672 415.827 249.027 416.206 249.811C416.685 250.778 416.734 252.344 415.099 256.406C413.464 260.468 412.363 261.556 411.334 261.915C410.518 262.218 409.863 262.081 408.409 261.496L405.869 260.473C404.415 259.888 403.848 259.533 403.469 258.749C402.989 257.783 402.949 256.236 404.584 252.174C406.219 248.112 407.32 247.024 408.34 246.645C409.157 246.343 409.812 246.48 411.266 247.065L413.806 248.087ZM410.555 248.91C409.807 248.609 409.552 248.617 409.29 248.717C408.953 248.849 408.332 249.373 406.845 253.068C405.357 256.763 405.429 257.565 405.594 257.9C405.713 258.153 405.892 258.336 406.64 258.637L409.112 259.632C409.859 259.932 410.115 259.925 410.376 259.825C410.727 259.698 411.335 259.169 412.822 255.474C414.309 251.779 414.237 250.976 414.072 250.641C413.948 250.402 413.788 250.211 413.027 249.905L410.555 248.91Z" fill="white"/>
<path d="M427.037 253.412C428.491 253.997 429.058 254.351 429.437 255.135C429.917 256.102 429.951 257.663 428.317 261.725C426.682 265.786 425.567 266.869 424.566 267.239C423.749 267.542 423.094 267.405 421.641 266.82L419.1 265.797C417.647 265.212 417.079 264.858 416.7 264.074C416.221 263.107 416.181 261.56 417.816 257.498C419.45 253.436 420.551 252.348 421.572 251.97C422.388 251.667 423.043 251.804 424.497 252.389L427.037 253.412ZM423.8 254.24C423.052 253.939 422.81 253.952 422.536 254.046C422.198 254.179 421.577 254.702 420.09 258.398C418.602 262.093 418.688 262.9 418.839 263.23C418.958 263.483 419.137 263.666 419.885 263.966L422.357 264.961C423.104 265.262 423.346 265.249 423.621 265.154C423.959 265.022 424.58 264.498 426.067 260.803C427.554 257.108 427.469 256.3 427.317 255.971C427.193 255.732 427.019 255.535 426.272 255.235L423.8 254.24Z" fill="white"/>
<path d="M440.256 258.732C441.71 259.317 442.277 259.672 442.656 260.456C443.135 261.422 443.17 262.983 441.535 267.045C439.9 271.107 438.786 272.189 437.784 272.56C436.968 272.863 436.313 272.725 434.859 272.14L432.319 271.118C430.865 270.533 430.298 270.178 429.919 269.394C429.44 268.428 429.399 266.88 431.034 262.818C432.669 258.756 433.77 257.668 434.791 257.29C435.607 256.987 436.262 257.124 437.716 257.709L440.256 258.732ZM437.018 259.56C436.271 259.259 436.029 259.272 435.754 259.367C435.417 259.499 434.796 260.023 433.308 263.718C431.821 267.413 431.906 268.221 432.058 268.55C432.177 268.803 432.356 268.986 433.103 269.287L435.576 270.282C436.323 270.582 436.565 270.569 436.84 270.475C437.177 270.342 437.798 269.819 439.286 266.124C440.773 262.429 440.688 261.621 440.536 261.291C440.412 261.052 440.238 260.856 439.491 260.555L437.018 259.56Z" fill="white"/>
<path d="M413.094 276.956C413.719 277.208 413.977 277.39 414.128 277.72C414.329 278.163 414.354 278.805 413.567 280.761C412.785 282.704 412.33 283.168 411.865 283.344C411.527 283.476 411.215 283.429 410.59 283.178L409.286 282.653C408.647 282.396 408.403 282.219 408.251 281.889C408.037 281.44 408.044 280.796 408.826 278.853C409.608 276.91 410.049 276.441 410.515 276.265C410.852 276.133 411.151 276.174 411.79 276.431L413.094 276.956ZM411.557 277.048C411.136 276.878 410.973 276.892 410.826 276.943C410.584 277.035 410.279 277.323 409.546 279.143C408.813 280.963 408.821 281.377 408.945 281.616C409.01 281.769 409.124 281.878 409.545 282.047L410.822 282.561C411.243 282.731 411.393 282.712 411.553 282.666C411.782 282.569 412.087 282.281 412.82 280.461C413.553 278.64 413.532 278.221 413.434 277.993C413.369 277.84 413.255 277.731 412.834 277.562L411.557 277.048Z" fill="white"/>
<path d="M419.071 279.362C419.696 279.614 419.954 279.797 420.106 280.126C420.306 280.57 420.318 281.206 419.531 283.162C418.749 285.105 418.294 285.569 417.842 285.75C417.505 285.883 417.192 285.836 416.567 285.584L415.263 285.059C414.625 284.802 414.38 284.625 414.229 284.296C414.015 283.846 414.022 283.202 414.804 281.259C415.585 279.317 416.027 278.847 416.492 278.671C416.83 278.539 417.129 278.58 417.767 278.837L419.071 279.362ZM417.535 279.454C417.114 279.285 416.951 279.298 416.804 279.349C416.561 279.441 416.256 279.729 415.524 281.549C414.791 283.37 414.798 283.783 414.923 284.022C414.988 284.175 415.102 284.284 415.523 284.453L416.8 284.967C417.221 285.137 417.37 285.118 417.531 285.072C417.76 284.975 418.065 284.687 418.797 282.867C419.53 281.047 419.509 280.628 419.412 280.399C419.347 280.247 419.233 280.138 418.812 279.968L417.535 279.454Z" fill="white"/>
<path d="M428.961 283.343C429.586 283.594 429.844 283.777 429.996 284.106C430.196 284.55 430.208 285.186 429.421 287.143C428.639 289.085 428.184 289.549 427.732 289.73C427.394 289.863 427.095 289.822 426.457 289.565L425.153 289.04C424.514 288.783 424.27 288.605 424.118 288.276C423.904 287.827 423.911 287.182 424.693 285.24C425.475 283.297 425.917 282.828 426.382 282.652C426.733 282.525 427.018 282.561 427.657 282.818L428.961 283.343ZM427.425 283.435C427.003 283.265 426.84 283.278 426.693 283.33C426.451 283.422 426.146 283.709 425.413 285.53C424.68 287.35 424.688 287.763 424.812 288.003C424.877 288.155 424.991 288.264 425.412 288.434L426.689 288.948C427.11 289.117 427.274 289.104 427.421 289.053C427.649 288.955 427.954 288.668 428.687 286.847C429.42 285.027 429.399 284.608 429.302 284.38C429.237 284.227 429.123 284.118 428.701 283.949L427.425 283.435Z" fill="white"/>
<path d="M434.938 285.749C435.563 286.001 435.821 286.183 435.972 286.513C436.172 286.956 436.198 287.598 435.411 289.554C434.629 291.497 434.174 291.961 433.708 292.137C433.371 292.269 433.072 292.228 432.433 291.971L431.129 291.446C430.491 291.189 430.246 291.012 430.095 290.682C429.881 290.233 429.888 289.589 430.67 287.646C431.452 285.703 431.893 285.234 432.359 285.058C432.71 284.931 432.995 284.967 433.634 285.224L434.938 285.749ZM433.401 285.841C432.98 285.671 432.817 285.685 432.67 285.736C432.428 285.828 432.122 286.116 431.39 287.936C430.657 289.756 430.664 290.17 430.789 290.409C430.854 290.562 430.968 290.671 431.389 290.84L432.666 291.354C433.087 291.524 433.25 291.51 433.397 291.459C433.626 291.362 433.931 291.074 434.664 289.254C435.396 287.433 435.375 287.014 435.278 286.786C435.213 286.633 435.099 286.524 434.678 286.355L433.401 285.841Z" fill="white"/>
<path d="M418.051 287.824L424.783 281.567L425.449 281.835L418.716 288.091L418.051 287.824Z" fill="white"/>
<path fill-rule="evenodd" clip-rule="evenodd" d="M357.089 465.945L359.724 467.006L358.04 471.19L362.007 467.924L364.425 468.898L356.141 475.398C356.141 475.398 355.409 475.924 354.685 476.075C354.098 476.201 353.532 475.958 353.364 475.906C352.405 475.504 351.25 475.04 351.25 475.04L352.622 473.24L353.532 473.606C353.532 473.606 353.97 473.735 354.201 473.591C354.427 473.461 354.591 473.29 354.705 473.005C354.875 472.584 357.089 465.945 357.089 465.945ZM329.363 455.764C328.652 456.473 327.554 455.905 327.554 455.905L326.223 455.369L327.439 453.759C327.439 453.759 328.621 454.234 329.205 454.47C329.83 454.721 329.818 455.3 329.363 455.764ZM332.877 455.742C333.824 454.055 332.434 452.959 330.736 452.276L326.266 450.477L319.765 459.02L322.604 460.163L324.8 457.258L326.384 457.912C326.384 457.912 327.052 458.133 326.814 458.764C326.565 459.421 325.576 460.428 325.275 461.254L328.196 462.43L328.3 462.171C328.3 462.171 328.082 462.005 328.246 461.676C328.315 461.546 328.644 461.158 329.094 460.629C329.326 460.406 329.768 459.858 329.962 459.336C330.192 458.687 329.918 458.229 329.421 457.777C331.398 458.083 332.877 455.742 332.877 455.742ZM333.356 456.393L335.951 457.437L333.24 461.113C333.24 461.113 332.602 461.914 333.425 462.34C334.083 462.668 334.908 462.069 335.29 461.591C335.797 460.958 337.875 458.227 337.875 458.227L340.537 459.299L335.703 465.467L333.38 464.532L334.064 463.655C334.064 463.655 332.297 464.633 330.602 463.745C329.1 462.967 329.424 461.771 330.269 460.454C330.668 459.778 333.356 456.393 333.356 456.393ZM346.311 462.602C345.529 463.487 344.559 462.954 344.559 462.954L343.174 462.396L344.537 460.577C344.537 460.577 345.42 460.933 345.991 461.163C346.697 461.447 346.726 462.121 346.311 462.602ZM349.601 462.821C350.549 461.134 349.477 459.835 347.779 459.151L343.31 457.352L336.809 465.896L339.648 467.039L341.641 464.4L343.891 465.321C343.904 465.327 347.349 466.887 349.601 462.821ZM349.718 469.434C349.226 469.363 348.668 469.217 348.724 468.766C348.868 467.545 351.594 468.264 351.594 468.264C351.203 469.275 350.09 469.49 349.718 469.434ZM354.445 468.985C355.249 467.967 356.127 467.042 356.02 466.288C355.867 465.138 354.935 464.668 353.536 464.105C351.987 463.481 349.952 463.009 348.496 464.823L351.077 465.862C351.077 465.862 351.619 465.18 352.581 465.615C353.421 466 353.139 466.581 352.682 466.776C351.895 467.122 350.486 466.192 348.553 466.093C346.864 466.013 345.566 467.748 345.561 468.661C345.568 469.548 346.114 469.878 346.874 470.263C348.088 470.894 349.337 470.576 349.95 470.349C349.764 470.811 349.673 471.074 349.673 471.074L352.39 472.168L352.494 471.91C352.494 471.91 352.277 471.743 352.441 471.415C352.553 471.175 353.509 470.171 354.445 468.985Z" fill="white"/>
<path fill-rule="evenodd" clip-rule="evenodd" d="M368.457 468.643L361.155 478.001L368.979 474.993L368.457 468.643Z" fill="#1C8546"/>
<path fill-rule="evenodd" clip-rule="evenodd" d="M366.515 467.862L359.212 477.219L367.037 474.212L366.515 467.862Z" fill="#E76C24"/>
<path d="M409.379 295.303L408.828 296.672L407.162 295.869L407.619 297.644L406.149 297.892L405.947 295.977L404.475 297.218L403.587 296.021L405.165 295.065L403.388 294.483L403.939 293.113L405.624 293.924L405.148 292.141L406.618 291.893L406.82 293.808L408.292 292.567L409.18 293.764L407.621 294.728L409.379 295.303ZM417.87 298.72L417.319 300.09L415.653 299.287L416.11 301.062L414.64 301.31L414.439 299.394L412.967 300.636L412.078 299.439L413.656 298.483L411.88 297.9L412.431 296.531L414.116 297.342L413.64 295.559L415.11 295.311L415.311 297.226L416.784 295.985L417.672 297.182L416.113 298.145L417.87 298.72ZM426.362 302.138L425.811 303.507L424.145 302.704L424.602 304.479L423.132 304.728L422.93 302.812L421.458 304.054L420.57 302.857L422.148 301.901L420.371 301.318L420.923 299.949L422.607 300.76L422.131 298.977L423.602 298.729L423.803 300.644L425.275 299.402L426.163 300.6L424.604 301.563L426.362 302.138Z" fill="white"/>
</g>
<rect x="300.437" y="81.1667" width="223.945" height="356.706" rx="8.55011" transform="rotate(21.9245 300.437 81.1667)" stroke="white" stroke-width="0.472436"/>
<g clip-path="url(#clip1_1372_2032)">
<path d="M267.047 378.464L70.0836 410.592C63.3775 411.686 57.0568 407.138 55.9629 400.432L2.45294 72.3806C1.35907 65.6745 5.90694 59.3538 12.6131 58.26L209.577 26.1323C216.283 25.0384 222.604 29.5863 223.697 36.2924L277.21 364.358C278.287 371.052 273.739 377.373 267.047 378.464Z" fill="url(#paint1_linear_1372_2032)"/>
<mask id="mask0_1372_2032" style="mask-type:luminance" maskUnits="userSpaceOnUse" x="157" y="75" width="64" height="41">
<path d="M215.789 75.3256L157.963 84.7578L162.991 115.586L220.817 106.154L215.789 75.3256Z" fill="white"/>
</mask>
<g mask="url(#mask0_1372_2032)">
<path d="M207.266 106.941C206.893 106.928 206.528 106.78 206.249 106.529C206.009 106.33 205.849 106.075 205.77 105.776C205.692 105.477 205.715 105.162 205.834 104.89C205.989 104.39 206.193 103.912 206.337 103.339C207.048 101.057 207.403 98.6843 207.414 96.2938C207.419 95.3284 207.351 94.3603 207.236 93.3849C207.143 92.5396 207.006 91.7013 206.826 90.8701C206.029 87.261 204.38 83.8801 202.042 81.0119C201.863 80.8187 201.75 80.5848 201.681 80.3438C201.61 80.0884 201.613 79.8356 201.677 79.5879C201.74 79.3401 201.864 79.0974 202.026 78.9078C202.202 78.7158 202.414 78.5624 202.651 78.4645L203.214 78.3726C203.455 78.3927 203.686 78.444 203.897 78.5579C204.109 78.6718 204.296 78.8193 204.445 79.0028C205.701 80.6081 206.785 82.3452 207.665 84.19C208.736 86.3002 209.504 88.549 209.97 90.8618C210.223 92.141 210.392 93.4488 210.472 94.7563C210.533 95.8592 210.522 96.9738 210.45 98.0834C210.266 100.68 209.732 103.23 208.84 105.676C208.765 105.94 208.639 106.169 208.45 106.377C208.276 106.584 208.049 106.739 207.798 106.84L207.266 106.941Z" fill="white"/>
<path d="M186.653 90.8226C186.652 90.4519 186.8 90.0865 187.066 89.8057C187.218 89.6473 187.389 89.5155 187.582 89.4247C187.775 89.3339 187.989 89.2841 188.211 89.2776C188.432 89.2712 188.649 89.3249 188.839 89.3978C189.031 89.4851 189.214 89.6037 189.36 89.7727C190.185 90.6471 190.853 91.6509 191.314 92.7479C191.651 93.5387 191.874 94.3628 191.982 95.2058C192.217 97.0074 191.938 98.8481 191.186 100.514C191.086 100.812 190.876 101.069 190.608 101.246C190.34 101.423 190.027 101.504 189.712 101.481C189.404 101.502 189.096 101.434 188.832 101.269C188.567 101.104 188.363 100.856 188.244 100.578L188.145 99.9713C188.175 99.6994 188.238 99.4516 188.362 99.2089C188.91 97.9324 189.038 96.5317 188.742 95.1705C188.512 94.0358 187.984 92.9795 187.221 92.1246C187.039 91.917 186.869 91.6925 186.754 91.4441L186.653 90.8226Z" fill="white"/>
<path d="M203.842 92.9578C204.344 96.0362 204.175 99.1798 203.343 102.179C203.153 102.833 202.956 103.444 202.732 104.074C202.606 104.391 202.369 104.667 202.073 104.849C201.776 105.031 201.431 105.102 201.082 105.055C200.733 105.008 200.411 104.853 200.164 104.612C199.917 104.37 199.759 104.04 199.717 103.69C199.689 103.428 199.734 103.154 199.843 102.913C200.295 101.682 200.634 100.395 200.824 99.1032C201.011 97.8857 201.063 96.6604 200.998 95.4396C200.952 94.7052 200.88 93.9899 200.755 93.2239C200.311 90.774 199.38 88.4332 198.015 86.3412C197.656 85.7766 197.246 85.2648 196.846 84.7217C196.587 84.4079 196.461 83.9982 196.513 83.5891C196.565 83.18 196.756 82.8075 197.084 82.5462C197.398 82.2873 197.808 82.1611 198.231 82.2107C198.638 82.2483 199.013 82.4542 199.274 82.7825C200.051 83.7241 200.748 84.7232 201.351 85.7822C202.079 87.0582 202.669 88.4012 203.107 89.8135C203.34 90.5173 203.528 91.2137 203.696 91.9726C203.717 92.2808 203.771 92.6132 203.842 92.9578Z" fill="white"/>
<path d="M197.77 93.8441C198.197 96.4601 197.98 99.1364 197.129 101.649C197.068 101.822 197.01 102.01 196.935 102.185C196.82 102.486 196.61 102.743 196.345 102.935C196.077 103.112 195.749 103.195 195.422 103.189C195.092 103.169 194.777 103.057 194.522 102.861C194.268 102.665 194.074 102.385 193.979 102.074C193.881 101.749 193.899 101.405 194.028 101.102C194.417 100.029 194.68 98.918 194.793 97.7869C194.858 97.0047 194.863 96.2174 194.808 95.4252C194.748 94.7822 194.644 94.1463 194.499 93.5319C194.12 91.8429 193.401 90.2539 192.385 88.8469L191.877 88.1879C191.709 87.9779 191.609 87.7271 191.566 87.467C191.524 87.2068 191.554 86.9349 191.646 86.6824C191.738 86.43 191.896 86.2114 192.106 86.0436C192.316 85.8758 192.564 85.7611 192.822 85.7043C193.094 85.645 193.378 85.658 193.645 85.748C193.912 85.838 194.133 86.0097 194.303 86.2342C195.358 87.5162 196.2 88.9516 196.806 90.4848C197.155 91.3479 197.419 92.2395 197.611 93.143C197.651 93.3887 197.691 93.6344 197.729 93.8656" fill="white"/>
<path d="M178.039 95.5811L170.036 92.272C169.798 92.1773 169.536 92.1162 169.271 92.1298C169.006 92.1433 168.748 92.2002 168.529 92.3102C168.295 92.4225 168.085 92.5903 167.925 92.7944C167.766 92.9985 167.64 93.2267 167.579 93.4889L171.014 94.902C171.634 95.1569 172.177 95.5728 172.589 96.0991C173.001 96.6253 173.281 97.2474 173.387 97.8978C173.495 98.5626 173.426 99.2269 173.202 99.8568C172.978 100.487 172.594 101.039 172.089 101.492L169.283 103.938C169.422 104.153 169.614 104.33 169.83 104.472C170.046 104.615 170.296 104.693 170.554 104.725C170.811 104.757 171.076 104.744 171.315 104.66C171.57 104.589 171.787 104.465 171.981 104.285L178.517 98.6041C178.752 98.4027 178.931 98.1361 179.033 97.8523C179.135 97.5686 179.172 97.251 179.122 96.9474C179.073 96.6439 178.951 96.3522 178.75 96.118C178.58 95.8935 178.325 95.6976 178.039 95.5811Z" fill="#077A3E"/>
<path d="M170.205 96.8619L162.202 93.5529C161.899 93.4242 161.582 93.387 161.247 93.4268C160.927 93.4642 160.623 93.6028 160.374 93.8065C160.125 94.0103 159.932 94.2793 159.803 94.5822C159.689 94.8827 159.654 95.2148 159.706 95.5328L161.175 104.537C161.227 104.855 161.365 105.159 161.569 105.407C161.773 105.656 162.042 105.85 162.354 105.947C162.655 106.061 162.985 106.082 163.3 106.015C163.616 105.949 163.92 105.81 164.152 105.594L170.688 99.9138C170.922 99.7124 171.101 99.4458 171.204 99.162C171.306 98.8783 171.343 98.5607 171.293 98.2572C171.244 97.9536 171.122 97.6619 170.921 97.4277C170.746 97.1743 170.491 96.9784 170.205 96.8619Z" fill="#E77A26"/>
</g>
<path d="M127.964 118.71L123.331 90.3105C122.928 87.839 124.61 85.5024 127.081 85.0993L145.61 82.077C148.081 81.6738 150.418 83.3551 150.821 85.8265L155.453 114.226C155.856 116.698 154.175 119.035 151.704 119.438L133.175 122.46C130.704 122.863 128.369 121.196 127.964 118.71Z" fill="url(#paint2_linear_1372_2032)"/>
<path d="M137.889 122.163L135.975 110.428" stroke="#010101" stroke-width="0.585755"/>
<path d="M151.77 92.6443L150.036 93.5651L148.302 94.486L146.466 94.7854L144.631 95.0848L142.636 94.7722L139.717 95.8864L137.881 96.1858L136.046 96.4852L133.436 95.8574" stroke="#010101" stroke-width="0.585755"/>
<path d="M154.91 107.977L152.958 107.657L151.007 107.338L149.157 107.639L147.307 107.941L144.951 108.963L142.364 108.747L140.514 109.049L138.635 109.356L135.673 110.477" stroke="#010101" stroke-width="0.585755"/>
<path d="M127.116 112.512L129.474 110.866L131.382 110.555L133.29 110.244L135.949 110.448" stroke="#010101" stroke-width="0.585755"/>
<path d="M133.639 96.106L131.645 83.8789" stroke="#010101" stroke-width="0.585755"/>
<path d="M146.534 120.755L144.567 108.701" stroke="#010101" stroke-width="0.585755"/>
<path d="M150.388 107.457L150.504 104.263L149.901 100.563L149.396 97.4701L148.271 94.4785" stroke="#010101" stroke-width="0.585755"/>
<path d="M130.617 110.682L129.491 107.69L128.888 103.991L128.383 100.898L128.5 97.7033" stroke="#010101" stroke-width="0.585755"/>
<path d="M124.398 95.8477L126.449 96.7744L128.499 97.7011L129.728 97.5007" stroke="#010101" stroke-width="0.585755"/>
<path d="M142.304 94.8279L140.288 82.4707" stroke="#010101" stroke-width="0.585755"/>
<path fill-rule="evenodd" clip-rule="evenodd" d="M236.932 349.124L241.441 348.388L242.611 355.557L245.344 347.752L249.477 347.078L243.5 362.92C243.5 362.92 242.918 364.261 242.07 365.067C241.362 365.731 240.389 365.86 240.102 365.922C238.452 366.176 236.458 366.502 236.458 366.502L236.848 362.892L238.395 362.64C238.395 362.64 239.091 362.452 239.309 362.06C239.515 361.685 239.591 361.332 239.511 360.84C239.42 360.098 236.932 349.124 236.932 349.124ZM190.309 358.198C189.926 359.759 187.947 359.904 187.947 359.904L185.675 360.259L185.997 357.046C185.997 357.046 188.022 356.731 189.02 356.568C190.089 356.394 190.561 357.192 190.309 358.198ZM195.127 355.26C195.02 352.147 192.204 351.805 189.299 352.279L181.654 353.526L179.825 370.695L184.681 369.903L185.289 364.076L188.011 363.662C188.011 363.662 189.126 363.406 189.315 364.473C189.528 365.595 188.998 367.804 189.28 369.167L194.266 368.354L194.181 367.923C194.181 367.923 193.743 367.875 193.706 367.288C193.68 367.04 193.83 366.229 194.01 365.146C194.151 364.649 194.294 363.527 194.122 362.65C193.899 361.559 193.137 361.164 192.081 360.965C195.052 359.709 195.127 355.26 195.127 355.26ZM196.334 355.746L200.757 355.025L200.079 362.331C200.079 362.331 199.885 363.965 201.366 363.857C202.539 363.77 203.18 362.241 203.304 361.271C203.479 359.981 204.054 354.502 204.054 354.502L208.621 353.757L207.1 366.261L203.111 366.911L203.324 365.126C203.324 365.126 201.689 367.929 198.636 368.131C195.905 368.309 195.356 366.396 195.437 363.89C195.458 362.655 196.334 355.746 196.334 355.746ZM219.309 353.512C218.961 355.379 217.193 355.459 217.193 355.459L214.823 355.846L215.192 352.195C215.192 352.195 216.697 351.965 217.695 351.802C218.906 351.589 219.498 352.487 219.309 353.512ZM224.043 351.063C223.936 347.95 221.399 347.043 218.48 347.519L210.834 348.766L209.005 365.935L213.861 365.143L214.393 359.848L218.271 359.245C218.271 359.245 224.311 358.527 224.043 351.063ZM229.696 360.067C228.975 360.378 228.069 360.644 227.768 359.981C226.953 358.17 231.286 356.9 231.286 356.9C231.596 358.615 230.251 359.828 229.696 360.067ZM235.824 355.522C236.079 353.447 236.508 351.434 235.745 350.49C234.575 349.048 232.904 349.173 230.505 349.564C227.846 349.998 224.662 351.036 224.168 354.737L228.59 354.016C228.59 354.016 228.778 352.62 230.454 352.436C231.94 352.268 232.019 353.293 231.576 353.944C230.782 355.083 228.077 354.96 225.337 356.446C222.951 357.74 222.6 361.225 223.366 362.465C224.11 363.664 225.136 363.675 226.501 363.586C228.69 363.451 230.142 361.983 230.807 361.147C230.934 361.928 231.019 362.359 231.019 362.359L235.673 361.6L235.588 361.169C235.588 361.169 235.15 361.121 235.114 360.534C235.055 360.083 235.517 357.916 235.824 355.522Z" fill="white"/>
<path fill-rule="evenodd" clip-rule="evenodd" d="M254.822 343.372L252.573 362.33L260.836 351.679L254.822 343.372Z" fill="#1C8546"/>
<path fill-rule="evenodd" clip-rule="evenodd" d="M251.484 343.915L249.235 362.873L257.498 352.222L251.484 343.915Z" fill="#E76C24"/>
<path d="M22.4878 76.6965C22.0543 76.7672 21.6404 76.6864 21.273 76.4347C20.9055 76.1831 20.6876 75.8477 20.6192 75.4286C20.5485 74.995 20.6485 74.6077 20.9194 74.2668C21.1878 73.9114 21.54 73.7056 21.9881 73.6325C22.4216 73.5618 22.821 73.645 23.1885 73.8967C23.5559 74.1483 23.7738 74.4837 23.8422 74.9028C23.9129 75.3364 23.8129 75.7237 23.5421 76.0646C23.2713 76.4055 22.9214 76.6258 22.4878 76.6965ZM24.5903 84.1284C24.654 84.5186 24.7722 85.1522 24.9281 86.017C25.0984 86.8794 25.2166 87.513 25.2802 87.9032C25.3463 88.3079 25.2704 88.6615 25.0382 88.9665C24.8205 89.2691 24.4925 89.4413 24.0878 89.5073C23.6831 89.5733 23.3151 89.4998 23.0148 89.2965C22.6978 89.0812 22.5135 88.77 22.4475 88.3653C22.3838 87.9751 22.2657 87.3415 22.0953 86.479C21.9394 85.6142 21.8212 84.9807 21.7576 84.5904C21.6585 83.9834 21.5602 83.1982 21.4815 82.2615C21.4029 81.3247 21.3069 80.554 21.2055 79.9325C21.1395 79.5278 21.2177 79.1887 21.4499 78.8837C21.6676 78.5811 21.9933 78.3945 22.3979 78.3285C22.8026 78.2624 23.1707 78.3359 23.4733 78.5537C23.7759 78.7714 23.9723 79.0658 24.0383 79.4704C24.1373 80.0775 24.2357 80.8626 24.3143 81.7994C24.4097 82.7483 24.4913 83.5213 24.5903 84.1284Z" fill="white"/>
<path d="M32.8976 88.3829C32.3051 88.4796 31.6862 88.5064 31.0146 88.4824L31.6886 92.705C31.7546 93.1096 31.6787 93.4633 31.4466 93.7682C31.2288 94.0708 30.9032 94.2575 30.4985 94.3235C30.0938 94.3895 29.7257 94.316 29.4232 94.0983C29.1206 93.8805 28.9218 93.5717 28.8558 93.167C28.8039 92.8491 28.5941 91.5628 28.2408 89.3057C27.9842 87.6413 27.7602 86.2683 27.5737 85.2156C27.3164 83.7293 27.0488 82.4524 26.802 81.3947C26.458 79.9226 26.2894 79.2527 26.3107 79.3828C26.2164 78.8047 26.2686 78.3065 26.446 77.8473C26.6596 77.3376 27.0265 77.0404 27.5179 76.9602C27.8937 76.8989 28.2473 76.9748 28.5499 77.1925C28.8525 77.4102 29.0345 77.707 29.0934 78.0683L29.0954 78.1718C29.5155 77.8362 29.9329 77.5753 30.3742 77.3698C30.8154 77.1642 31.2661 77.0165 31.7286 76.9411C33.304 76.6841 34.5566 77.1772 35.4985 78.4034C36.1982 79.3279 36.6874 80.5983 36.9514 82.217C37.199 83.7346 36.9681 85.0483 36.2781 86.1846C35.5709 87.3979 34.4441 88.1307 32.8976 88.3829ZM32.2102 79.7113C31.7766 79.7821 31.3595 79.9539 30.9445 80.2294C30.5294 80.5048 30.1309 80.8814 29.7489 81.3591C30.0666 82.7614 30.3289 84.1875 30.5623 85.6183C31.2023 85.7217 31.8259 85.7238 32.4329 85.6248C33.1411 85.5093 33.6358 85.1764 33.929 84.6092C34.2028 84.1046 34.2604 83.4572 34.1355 82.6912C33.9846 81.7662 33.8351 81.1229 33.6895 80.7757C33.377 79.9513 32.875 79.6029 32.2102 79.7113Z" fill="white"/>
<path d="M44.1398 86.549C43.5472 86.6456 42.9284 86.6724 42.2568 86.6484L42.9308 90.871C42.9968 91.2757 42.9209 91.6293 42.6887 91.9342C42.471 92.2368 42.1454 92.4235 41.7407 92.4895C41.336 92.5555 40.9679 92.482 40.6653 92.2643C40.3628 92.0466 40.164 91.7377 40.098 91.333C40.0461 91.0151 39.8363 89.7288 39.483 87.4718C39.2264 85.8073 39.0024 84.4343 38.8158 83.3816C38.5586 81.8953 38.2909 80.6184 38.0442 79.5607C37.7002 78.0886 37.5316 77.4187 37.5528 77.5488C37.4585 76.9707 37.5108 76.4725 37.6881 76.0133C37.9018 75.5037 38.2687 75.2064 38.7601 75.1263C39.1359 75.065 39.4895 75.1408 39.7921 75.3585C40.0947 75.5762 40.2766 75.873 40.3356 76.2343L40.3376 76.3378C40.7577 76.0023 41.1751 75.7413 41.6164 75.5358C42.0576 75.3303 42.5083 75.1825 42.9853 75.1048C44.5606 74.8478 45.8132 75.3408 46.7551 76.5671C47.4549 77.4915 47.944 78.762 48.2081 80.3807C48.4556 81.8982 48.2248 83.2119 47.5347 84.3483C46.8131 85.5639 45.6718 86.2991 44.1398 86.549ZM43.4524 77.8773C43.0188 77.9481 42.6017 78.12 42.1867 78.3954C41.7716 78.6708 41.3731 79.0474 40.9911 79.5252C41.3088 80.9274 41.5856 82.3512 41.819 83.782C42.459 83.8853 43.0825 83.8875 43.6895 83.7885C44.3977 83.6729 44.8924 83.34 45.1857 82.7729C45.4594 82.2683 45.5171 81.6209 45.3921 80.8548C45.2412 79.9299 45.0918 79.2866 44.9461 78.9394C44.6192 78.1173 44.1172 77.7689 43.4524 77.8773Z" fill="white"/>
<path d="M54.8634 84.7974C53.5916 85.0049 52.4369 84.7481 51.3826 84.015C50.2297 83.2238 49.4996 82.0223 49.1801 80.4275C48.8892 78.917 49.0723 77.4924 49.7583 76.1491C50.5702 74.5774 51.9 73.6334 53.7499 73.3317C55.1229 73.1077 56.2965 73.4801 57.2874 74.461C58.1727 75.3404 58.7344 76.5099 58.9749 77.9841C59.2365 79.5884 59.039 81.0153 58.3702 82.2817C57.6358 83.6924 56.4677 84.5357 54.8634 84.7974ZM54.0678 76.099C53.2295 76.2357 52.626 76.7199 52.2619 77.5805C51.9633 78.2969 51.8859 79.0959 52.0297 79.9775C52.1641 80.8013 52.499 81.3996 53.0346 81.7722C53.467 82.0577 53.9167 82.1772 54.4081 82.0971C55.0007 82.0004 55.488 81.7132 55.8556 81.2378C56.2836 80.6784 56.4377 79.9856 56.3346 79.1715C56.0848 76.9124 55.3252 75.8939 54.0678 76.099Z" fill="white"/>
<path d="M68.1563 82.513C67.5637 82.6097 66.9304 82.6388 66.2565 82.6003L66.9469 86.9241C67.0129 87.3288 66.9394 87.6969 66.7073 88.0018C66.4919 88.3188 66.1663 88.5055 65.7616 88.5715C65.3569 88.6375 64.9888 88.564 64.6839 88.3319C64.3789 88.0997 64.1802 87.7908 64.1142 87.3862C64.0599 87.0538 63.8454 85.7385 63.485 83.4382C63.2213 81.7304 62.995 80.3429 62.8037 79.2613C62.5417 77.7461 62.2694 76.4403 62.018 75.3537C61.6837 73.8503 61.5127 73.166 61.5316 73.2816C61.4373 72.7035 61.4849 72.1764 61.6622 71.7172C61.8734 71.1931 62.2404 70.8959 62.7318 70.8157C63.122 70.7521 63.4612 70.8303 63.7662 71.0624C64.0711 71.2946 64.253 71.5914 64.3143 71.9671L64.3164 72.0707C64.7341 71.7206 65.1659 71.4573 65.5928 71.2541C66.034 71.0486 66.4847 70.9009 66.9617 70.8231C68.537 70.5661 69.8064 71.0713 70.753 72.3264C71.4575 73.2798 71.9514 74.5791 72.2201 76.2268C72.4724 77.7732 72.2463 79.1158 71.5609 80.281C70.8416 81.5112 69.7027 82.2608 68.1563 82.513ZM67.4382 73.6535C67.0046 73.7242 66.5875 73.8961 66.1748 74.186C65.7598 74.4614 65.3636 74.8525 64.9816 75.3302C65.3041 76.7614 65.5855 78.214 65.8236 79.6738C66.4637 79.7771 67.0872 79.7793 67.6942 79.6803C68.4024 79.5647 68.8947 79.2174 69.188 78.6502C69.4594 78.1311 69.5291 77.4669 69.4018 76.6865C69.2462 75.7326 69.0968 75.0893 68.9632 74.7253C68.6194 73.8911 68.1175 73.5427 67.4382 73.6535Z" fill="white"/>
<path d="M83.5463 80.0733C83.2284 80.1252 82.6804 79.8585 81.8711 79.2635C81.2847 79.6707 80.7756 80.006 80.3222 80.2283C79.8712 80.4651 79.4807 80.6178 79.1338 80.6744C77.4862 80.9431 76.1701 80.6979 75.1978 79.9217C74.2255 79.1455 73.5992 77.853 73.3045 76.0464C73.0263 74.3409 73.3976 72.7966 74.4304 71.3967C75.4464 69.9846 76.8071 69.1395 78.5126 68.8613C79.163 68.7552 79.9452 68.8205 80.8615 69.0716C81.9776 69.3644 82.5707 69.8166 82.6673 70.4092C82.7097 70.6694 82.6728 70.8979 82.5445 71.1118C82.5194 71.4126 82.5182 71.7689 82.56 72.2072C82.5994 72.631 82.653 73.1416 82.745 73.7053C82.9642 75.0494 83.2089 76.0036 83.4934 76.5655C83.5173 76.621 83.7376 76.9708 84.1496 77.5861C84.5087 78.1507 84.7098 78.474 84.724 78.5607C84.7853 78.9365 84.6902 79.2636 84.4557 79.5541C84.2044 79.8325 83.9076 80.0144 83.5463 80.0733ZM79.8192 73.2329C79.7814 73.0017 79.7558 72.7536 79.7376 72.4598C79.7193 72.1661 79.7229 71.8242 79.7218 71.4535C79.5799 71.4024 79.4428 71.3803 79.3224 71.3702C79.2166 71.3578 79.1251 71.3431 79.0384 71.3572C78.1134 71.5081 77.3509 72.0183 76.7798 72.883C76.2086 73.7477 75.9887 74.6738 76.149 75.6566C76.3023 76.596 76.5791 77.2927 76.9893 77.7154C77.3996 78.1382 77.9287 78.2893 78.5791 78.1832C78.9982 78.1148 79.3911 77.9765 79.7433 77.7707C80.1099 77.5625 80.4214 77.2892 80.7212 76.9435C80.2598 75.2976 79.9559 74.0712 79.8192 73.2329Z" fill="white"/>
<path d="M95.0113 68.3092C94.5215 70.0361 93.761 72.7419 92.701 76.4312C92.1187 78.4105 91.7038 80.051 91.4393 81.3405C91.3655 81.7976 91.2404 82.4857 91.0783 83.4024C90.9411 84.1073 90.5617 84.5105 89.9258 84.6142C89.5355 84.6778 89.1675 84.6043 88.836 84.3913C88.5045 84.1783 88.2913 83.8719 88.2276 83.4816C88.1215 82.8313 88.5259 80.7622 89.4599 77.3011C88.4585 75.8917 86.8911 73.8328 84.7723 71.1219C84.5686 70.8732 84.3527 70.6413 84.1345 70.395C83.8947 70.1077 83.7585 69.8183 83.716 69.5582C83.6548 69.1824 83.7427 68.812 83.9991 68.4734C84.241 68.1372 84.5643 67.9361 84.94 67.8748C85.3881 67.8017 85.7777 67.9162 86.08 68.223C87.2652 69.3947 88.7347 71.2174 90.4571 73.6814C90.9207 71.8846 91.2061 70.8143 91.2941 70.4438C91.6134 69.3086 91.9394 68.3058 92.2723 67.4355C92.4788 66.8825 92.841 66.5563 93.3613 66.4715C93.7516 66.4078 94.1052 66.4837 94.4535 66.7088C94.8018 66.9339 94.9982 67.2283 95.0619 67.6185C95.1093 67.8185 95.0869 68.0447 95.0113 68.3092Z" fill="white"/>
<path d="M122.069 201.993L106.214 204.579C103.671 204.994 101.281 203.262 100.869 200.732C100.454 198.189 102.186 195.799 104.715 195.387L127.189 191.721C128.606 191.49 129.561 190.162 129.33 188.745C129.099 187.329 127.771 186.374 126.355 186.605L117.148 188.106C114.605 188.521 112.215 186.789 111.803 184.26C111.39 181.731 113.12 179.327 115.649 178.914L127.948 176.908C131.547 176.321 135.24 177.039 138.38 178.916L189.641 209.74C190.823 210.437 191.068 212.03 190.171 213.081L151.195 257.66C148.831 260.36 145.606 262.147 142.065 262.725L123.536 265.747C120.993 266.162 118.603 264.43 118.191 261.901C117.776 259.357 119.508 256.968 122.037 256.555L136.866 254.136C138.557 253.86 139.708 252.278 139.43 250.573C139.154 248.882 137.572 247.73 135.866 248.008L126.66 249.51C124.405 249.878 122.27 248.342 121.902 246.087C121.535 243.832 123.071 241.697 125.325 241.33L139.634 238.996C141.888 238.628 143.424 236.493 143.057 234.238C142.689 231.984 140.554 230.448 138.299 230.815L134.224 231.48C131.969 231.848 129.834 230.312 129.466 228.057C129.098 225.803 130.635 223.668 132.889 223.3L143.107 221.633C144.798 221.357 145.95 219.775 145.672 218.069C145.393 216.364 143.813 215.227 142.108 215.505L117.596 219.503C115.341 219.871 113.206 218.335 112.838 216.08C112.471 213.826 114.007 211.691 116.261 211.323L123.416 210.156C125.67 209.788 127.206 207.653 126.839 205.399C126.459 203.161 124.338 201.623 122.069 201.993Z" fill="url(#paint3_linear_1372_2032)"/>
<path d="M93.9254 206.284C96.4691 205.869 98.1867 203.482 97.7718 200.938C97.3569 198.395 94.9698 196.677 92.4261 197.092C89.8824 197.507 88.1648 199.894 88.5798 202.438C88.9947 204.982 91.3817 206.699 93.9254 206.284Z" fill="url(#paint4_linear_1372_2032)"/>
<path d="M113.911 251.573C116.455 251.158 118.172 248.771 117.757 246.228C117.342 243.684 114.955 241.966 112.412 242.381C109.868 242.796 108.15 245.183 108.565 247.727C108.963 250.258 111.367 251.988 113.911 251.573Z" fill="url(#paint5_linear_1372_2032)"/>
<path d="M93.0267 214.968L105.297 212.966C107.552 212.598 109.687 214.134 110.055 216.389C110.422 218.644 108.886 220.779 106.632 221.146L94.361 223.148C92.1064 223.516 89.9715 221.98 89.6037 219.725C89.2359 217.47 90.7576 215.338 93.0267 214.968Z" fill="url(#paint6_linear_1372_2032)"/>
<path d="M107.349 227.462L121.657 225.128C123.912 224.76 126.047 226.296 126.415 228.551C126.782 230.805 125.246 232.94 122.992 233.308L108.683 235.642C106.429 236.01 104.294 234.474 103.926 232.219C103.558 229.964 105.094 227.83 107.349 227.462Z" fill="url(#paint7_linear_1372_2032)"/>
</g>
<rect x="0.439133" y="61.1307" width="223.696" height="356.633" rx="8.55011" transform="rotate(-9.2642 0.439133 61.1307)" stroke="white" stroke-width="0.472436"/>
<path d="M327.844 96.4656C327.844 88.758 325.17 86.0863 317.458 86.0863C325.17 86.0863 327.844 83.4147 327.844 75.707C327.844 83.4147 330.517 86.0863 338.229 86.0863C330.517 86.0863 327.844 88.758 327.844 96.4656Z" fill="url(#paint8_linear_1372_2032)"/>
<path d="M131.005 20.7586C131.005 13.0509 128.331 10.3793 120.619 10.3793C128.331 10.3793 131.005 7.70766 131.005 0C131.005 7.70766 133.678 10.3793 141.39 10.3793C133.678 10.3793 131.005 13.0509 131.005 20.7586Z" fill="url(#paint9_linear_1372_2032)"/>
<path d="M159.774 450.77C159.774 443.063 157.101 440.391 149.389 440.391C157.101 440.391 159.774 437.719 159.774 430.012C159.774 437.719 162.448 440.391 170.16 440.391C162.448 440.391 159.774 443.063 159.774 450.77Z" fill="white"/>
<path d="M354.116 24.827C354.116 21.6518 353.015 20.5512 349.838 20.5512C353.015 20.5512 354.116 19.4506 354.116 16.2754C354.116 19.4506 355.218 20.5512 358.395 20.5512C355.218 20.5512 354.116 21.6518 354.116 24.827Z" fill="white"/>
<defs>
<linearGradient id="paint0_linear_1372_2032" x1="366.134" y1="492.47" x2="308.223" y2="84.3152" gradientUnits="userSpaceOnUse">
<stop offset="3.22937e-07" stop-color="#365BA9"/>
<stop offset="0.2076" stop-color="#253B7B"/>
<stop offset="0.3927" stop-color="#1E488F"/>
<stop offset="0.5874" stop-color="#3C62AC"/>
<stop offset="0.6999" stop-color="#2C539F"/>
<stop offset="0.784" stop-color="#224B99"/>
<stop offset="0.8565" stop-color="#234286"/>
<stop offset="1" stop-color="#203061"/>
</linearGradient>
<linearGradient id="paint1_linear_1372_2032" x1="270.277" y1="377.95" x2="9.37016" y2="58.7769" gradientUnits="userSpaceOnUse">
<stop offset="3.22937e-07" stop-color="#365BA9"/>
<stop offset="0.2076" stop-color="#253B7B"/>
<stop offset="0.3927" stop-color="#1E488F"/>
<stop offset="0.5874" stop-color="#3C62AC"/>
<stop offset="0.6999" stop-color="#2C539F"/>
<stop offset="0.784" stop-color="#224B99"/>
<stop offset="0.8565" stop-color="#234286"/>
<stop offset="1" stop-color="#203061"/>
</linearGradient>
<linearGradient id="paint2_linear_1372_2032" x1="142.441" y1="120.952" x2="136.347" y2="83.5924" gradientUnits="userSpaceOnUse">
<stop stop-color="#DBC79A"/>
<stop offset="0.5" stop-color="#CAAC69"/>
<stop offset="1" stop-color="#BD9B48"/>
</linearGradient>
<linearGradient id="paint3_linear_1372_2032" x1="70.9871" y1="245.399" x2="189.27" y2="195.464" gradientUnits="userSpaceOnUse">
<stop offset="3.22937e-07" stop-color="#FFFADB"/>
<stop offset="0.1791" stop-color="#B9904D"/>
<stop offset="0.2076" stop-color="#B0833B"/>
<stop offset="0.3927" stop-color="#D3B063"/>
<stop offset="0.4952" stop-color="#E7D298"/>
<stop offset="0.5874" stop-color="#FCF9D3"/>
<stop offset="0.6609" stop-color="#F2E4AE"/>
<stop offset="0.7417" stop-color="#EBD38D"/>
<stop offset="0.784" stop-color="#E8CD82"/>
<stop offset="0.8446" stop-color="#D6B76D"/>
<stop offset="0.9687" stop-color="#B48840"/>
<stop offset="1" stop-color="#AB7D36"/>
</linearGradient>
<linearGradient id="paint4_linear_1372_2032" x1="58.6818" y1="216.249" x2="176.965" y2="166.314" gradientUnits="userSpaceOnUse">
<stop offset="3.22937e-07" stop-color="#FFFADB"/>
<stop offset="0.1791" stop-color="#B9904D"/>
<stop offset="0.2076" stop-color="#B0833B"/>
<stop offset="0.3927" stop-color="#D3B063"/>
<stop offset="0.4952" stop-color="#E7D298"/>
<stop offset="0.5874" stop-color="#FCF9D3"/>
<stop offset="0.6609" stop-color="#F2E4AE"/>
<stop offset="0.7417" stop-color="#EBD38D"/>
<stop offset="0.784" stop-color="#E8CD82"/>
<stop offset="0.8446" stop-color="#D6B76D"/>
<stop offset="0.9687" stop-color="#B48840"/>
<stop offset="1" stop-color="#AB7D36"/>
</linearGradient>
<linearGradient id="paint5_linear_1372_2032" x1="77.9314" y1="261.844" x2="196.215" y2="211.91" gradientUnits="userSpaceOnUse">
<stop offset="3.22937e-07" stop-color="#FFFADB"/>
<stop offset="0.1791" stop-color="#B9904D"/>
<stop offset="0.2076" stop-color="#B0833B"/>
<stop offset="0.3927" stop-color="#D3B063"/>
<stop offset="0.4952" stop-color="#E7D298"/>
<stop offset="0.5874" stop-color="#FCF9D3"/>
<stop offset="0.6609" stop-color="#F2E4AE"/>
<stop offset="0.7417" stop-color="#EBD38D"/>
<stop offset="0.784" stop-color="#E8CD82"/>
<stop offset="0.8446" stop-color="#D6B76D"/>
<stop offset="0.9687" stop-color="#B48840"/>
<stop offset="1" stop-color="#AB7D36"/>
</linearGradient>
<linearGradient id="paint6_linear_1372_2032" x1="65.5522" y1="232.528" x2="183.835" y2="182.593" gradientUnits="userSpaceOnUse">
<stop offset="3.22937e-07" stop-color="#FFFADB"/>
<stop offset="0.1791" stop-color="#B9904D"/>
<stop offset="0.2076" stop-color="#B0833B"/>
<stop offset="0.3927" stop-color="#D3B063"/>
<stop offset="0.4952" stop-color="#E7D298"/>
<stop offset="0.5874" stop-color="#FCF9D3"/>
<stop offset="0.6609" stop-color="#F2E4AE"/>
<stop offset="0.7417" stop-color="#EBD38D"/>
<stop offset="0.784" stop-color="#E8CD82"/>
<stop offset="0.8446" stop-color="#D6B76D"/>
<stop offset="0.9687" stop-color="#B48840"/>
<stop offset="1" stop-color="#AB7D36"/>
</linearGradient>
<linearGradient id="paint7_linear_1372_2032" x1="72.287" y1="248.479" x2="190.57" y2="198.545" gradientUnits="userSpaceOnUse">
<stop offset="3.22937e-07" stop-color="#FFFADB"/>
<stop offset="0.1791" stop-color="#B9904D"/>
<stop offset="0.2076" stop-color="#B0833B"/>
<stop offset="0.3927" stop-color="#D3B063"/>
<stop offset="0.4952" stop-color="#E7D298"/>
<stop offset="0.5874" stop-color="#FCF9D3"/>
<stop offset="0.6609" stop-color="#F2E4AE"/>
<stop offset="0.7417" stop-color="#EBD38D"/>
<stop offset="0.784" stop-color="#E8CD82"/>
<stop offset="0.8446" stop-color="#D6B76D"/>
<stop offset="0.9687" stop-color="#B48840"/>
<stop offset="1" stop-color="#AB7D36"/>
</linearGradient>
<linearGradient id="paint8_linear_1372_2032" x1="308.695" y1="89.6529" x2="338.501" y2="82.423" gradientUnits="userSpaceOnUse">
<stop offset="3.22937e-07" stop-color="#FFFADB"/>
<stop offset="0.1791" stop-color="#B9904D"/>
<stop offset="0.2076" stop-color="#B0833B"/>
<stop offset="0.3927" stop-color="#D3B063"/>
<stop offset="0.4952" stop-color="#E7D298"/>
<stop offset="0.5874" stop-color="#FCF9D3"/>
<stop offset="0.6609" stop-color="#F2E4AE"/>
<stop offset="0.7417" stop-color="#EBD38D"/>
<stop offset="0.784" stop-color="#E8CD82"/>
<stop offset="0.8446" stop-color="#D6B76D"/>
<stop offset="0.9687" stop-color="#B48840"/>
<stop offset="1" stop-color="#AB7D36"/>
</linearGradient>
<linearGradient id="paint9_linear_1372_2032" x1="111.856" y1="13.9458" x2="141.662" y2="6.71596" gradientUnits="userSpaceOnUse">
<stop offset="3.22937e-07" stop-color="#FFFADB"/>
<stop offset="0.1791" stop-color="#B9904D"/>
<stop offset="0.2076" stop-color="#B0833B"/>
<stop offset="0.3927" stop-color="#D3B063"/>
<stop offset="0.4952" stop-color="#E7D298"/>
<stop offset="0.5874" stop-color="#FCF9D3"/>
<stop offset="0.6609" stop-color="#F2E4AE"/>
<stop offset="0.7417" stop-color="#EBD38D"/>
<stop offset="0.784" stop-color="#E8CD82"/>
<stop offset="0.8446" stop-color="#D6B76D"/>
<stop offset="0.9687" stop-color="#B48840"/>
<stop offset="1" stop-color="#AB7D36"/>
</linearGradient>
<clipPath id="clip0_1372_2032">
<rect x="300.306" y="80.8594" width="224.417" height="357.179" rx="8.78632" transform="rotate(21.9245 300.306 80.8594)" fill="white"/>
</clipPath>
<clipPath id="clip1_1372_2032">
<rect x="0.167969" y="60.9355" width="224.168" height="357.106" rx="8.78632" transform="rotate(-9.2642 0.167969 60.9355)" fill="white"/>
</clipPath>
</defs>
</svg>
